<?xml version="1.0" encoding="UTF-8" standalone="no"?><!DOCTYPE svg PUBLIC "-//W3C//DTD SVG 1.1//EN" "http://www.w3.org/Graphics/SVG/1.1/DTD/svg11.dtd"><svg width="100%" height="100%" viewBox="0 0 128 128" version="1.1" xmlns="http://www.w3.org/2000/svg" xmlns:xlink="http://www.w3.org/1999/xlink" xml:space="preserve" xmlns:serif="http://www.serif.com/" style="fill-rule:evenodd;clip-rule:evenodd;stroke-linejoin:round;stroke-miterlimit:2;"><g><path d="M72.867,9.13c0.307,0.049 0.614,0.102 0.92,0.156c8.059,1.456 15.77,4.713 22.436,9.441l0.177,0.126l4.806,-6.281c-0.251,-0.182 -0.504,-0.362 -0.758,-0.54c-7.764,-5.426 -16.697,-9.103 -26.09,-10.672l-0.47,-0.075c-0.34,2.615 -0.681,5.23 -1.021,7.845Z" style="fill:#fcb034;fill-rule:nonzero;"/><path d="M99.106,20.924c0.226,0.185 0.451,0.371 0.675,0.559c6.334,5.348 11.434,12.069 14.851,19.581c0,0 7.32,-3.006 7.32,-3.006c-4.01,-8.931 -10.152,-16.93 -17.708,-23.145l-0.332,-0.27c-1.602,2.093 -3.204,4.187 -4.806,6.281Z" style="fill:#f47b20;fill-rule:nonzero;"/><path d="M63.822,0.517c-7.682,0.046 -15.316,1.463 -22.469,4.171c0,0 2.888,7.362 2.888,7.362c8.054,-3.041 16.732,-4.184 25.246,-3.361l1.022,-7.844c-2.221,-0.226 -4.445,-0.332 -6.687,-0.328Zm-24.361,3.492l0,0l0,0l0,0l0,0Z" style="fill:#fd0;fill-rule:nonzero;"/><path d="M0.829,57.655c-0.96,9.812 0.367,19.779 3.86,28.997c0,0 7.361,-2.889 7.361,-2.889c-3.052,-8.08 -4.182,-16.745 -3.36,-25.245l-7.845,-1.022c-0.005,0.053 -0.01,0.106 -0.016,0.159Z" style="fill:#009fc2;fill-rule:nonzero;"/><path d="M106.943,99.274c-5.404,6.557 -12.301,11.854 -20.001,15.358c0,0 3.006,7.319 3.006,7.319c0.302,-0.136 0.603,-0.273 0.903,-0.412c8.559,-4.013 16.211,-9.965 22.242,-17.295l0.27,-0.332l-6.282,-4.807c-0.046,0.056 -0.092,0.113 -0.138,0.169Z" style="fill:#ad208e;fill-rule:nonzero;"/><path d="M6.053,89.947c4.017,8.945 10.106,16.89 17.709,23.145l0.331,0.27l4.806,-6.281c-0.226,-0.185 -0.45,-0.371 -0.674,-0.559c-6.309,-5.326 -11.435,-12.069 -14.852,-19.582l-0.014,-0.032c-2.435,1.013 -4.87,2.026 -7.306,3.039Z" style="fill:#0067b1;fill-rule:nonzero;"/><path d="M83.573,116.027c-7.972,2.974 -16.58,4.107 -25.054,3.288l-1.021,7.844c9.76,0.993 19.719,-0.311 28.921,-3.754l0.383,-0.146l-3.038,-7.304c-0.064,0.024 -0.127,0.048 -0.191,0.072Z" style="fill:#77278b;fill-rule:nonzero;"/><path d="M26.799,115.432c7.934,5.733 17.166,9.595 26.849,11.212l0.47,0.076l1.022,-7.846c-0.307,-0.049 -0.614,-0.102 -0.921,-0.156c-8.005,-1.446 -15.733,-4.686 -22.437,-9.441l-0.177,-0.126c-1.602,2.093 -3.204,4.187 -4.806,6.281Z" style="fill:#492f92;fill-rule:nonzero;"/><path d="M37.86,6.143c-8.938,4.056 -16.881,10.187 -23.107,17.813c0,0 6.171,4.943 6.171,4.943c5.455,-6.666 12.342,-11.977 20.141,-15.527c0,0 -3.006,-7.319 -3.006,-7.319c-0.067,0.03 -0.133,0.06 -0.199,0.09Z" style="fill:#7bc143;fill-rule:nonzero;"/><path d="M12.469,26.942c-5.713,7.972 -9.57,17.267 -11.15,26.961l-0.034,0.215l7.846,1.022c1.33,-8.326 4.652,-16.384 9.596,-23.358l0.127,-0.177l-6.282,-4.806c-0.034,0.048 -0.068,0.095 -0.103,0.143Z" style="fill:#00b25a;fill-rule:nonzero;"/><path d="M63.238,23.929c-21.677,0 -39.414,17.737 -39.414,39.414c0,21.678 17.737,39.416 39.414,39.416c3.725,0 6.572,-2.849 6.572,-6.573c0,-1.753 -0.659,-3.282 -1.753,-4.376c-1.094,-1.094 -1.753,-2.629 -1.753,-4.375c0,-3.724 2.847,-6.572 6.571,-6.572l7.883,0c12.041,0 21.895,-9.854 21.895,-21.895c0,-19.273 -17.737,-35.039 -39.415,-35.039Z" style="fill:#157efb;fill-rule:nonzero;"/><path d="M63.523,23.502c-15.823,-0.433 -28.827,12.349 -28.312,12.378c9.671,0.548 26.261,9.957 35.164,20.469c7.796,9.204 10.383,24.514 10.383,24.514c12.041,0 21.895,-9.854 21.895,-21.895c0,-19.273 -15.875,-34.828 -39.13,-35.466Z" style="fill:#1560fb;fill-rule:nonzero;"/><circle cx="52.032" cy="42.067" r="8.037" style="fill:#fd0;"/><circle cx="74.445" cy="40.419" r="8.037" style="fill:#e61aaa;"/><circle cx="87.683" cy="59.766" r="8.037" style="fill:#911ae6;"/><circle cx="39.856" cy="61.333" r="8.037" style="fill:#7bc143;"/><path d="M65.699,114.859c-0.411,-5.2 5.923,-12.789 11.934,-11.903c0.789,0.994 1.577,1.986 2.365,2.98c-0.36,2.418 -1.292,4.282 -3.036,5.723c-3.024,2.498 -6.69,1.741 -9.736,2.43c-0.546,0.123 -0.946,0.406 -1.527,0.77Z" style="fill:#f2af0d;"/><path d="M80.23,101.586c3.334,-4.045 6.742,-8.077 10.453,-12.053c1.793,2.257 3.584,4.513 5.378,6.771c-4.563,2.697 -9.095,4.824 -13.645,7.3c-0.787,0.462 -1.455,-1.404 -2.186,-2.018Z" style="fill:#157efb;"/><path d="M126.993,66.57c0.072,0.09 0.144,0.181 0.215,0.27c-0.417,1.259 -1.088,2.403 -1.893,3.492c-6.841,9.247 -16.883,15.952 -27.015,24.32c-1.718,-2.321 -4.023,-4.749 -5.365,-7.002c12.119,-8.798 22.222,-17.83 34.058,-21.08Z" style="fill:#156cfb;"/><path d="M119.544,65.985c0.239,-7.122 -0.885,-14.256 -3.291,-20.94c-0.097,-0.268 -0.197,-0.536 -0.298,-0.804c2.435,-1.012 4.87,-2.025 7.304,-3.038l0.146,0.383c2.611,6.976 3.988,14.418 4.069,21.875c-0.1,-0.011 -0.205,-0.022 -0.315,-0.031c-0.947,-0.019 -1.887,0.351 -2.83,0.666c-1.635,0.546 -3.227,1.181 -4.785,1.889Z" style="fill:#f05133;fill-rule:nonzero;"/><path d="M127.065,73.43l0.143,0.019l-0.075,0.47c-1.558,9.328 -5.232,18.308 -10.671,26.091c-0.179,0.254 -0.359,0.507 -0.54,0.758l-6.282,-4.806l0.127,-0.177c2.435,-3.436 4.477,-7.137 6.083,-11.018c3.675,-3.207 7.179,-6.576 10.293,-10.249c0.301,-0.355 0.612,-0.719 0.922,-1.088Z" style="fill:#e31b23;fill-rule:nonzero;"/></g></svg>