<svg viewBox="0 0 600 600" xmlns="http://www.w3.org/2000/svg" fill-rule="evenodd" clip-rule="evenodd" stroke-linejoin="round" stroke-miterlimit="2"><path d="M228.7 36.1A229.4 229.4 0 0 0 0 265c0 125.8 103 228.7 228.7 228.7a37.5 37.5 0 0 0 38.2-38.1c0-10.2-3.8-19-10.2-25.4a35.5 35.5 0 0 1-10.2-25.4 37.5 37.5 0 0 1 38.2-38.1h45.7c69.9 0 127-57.2 127-127.1.1-112-102.7-203.6-228.6-203.6zM93 300a46.6 46.6 0 1 1 0-93.3 46.6 46.6 0 0 1 0 93.3zm70.7-112a46.6 46.6 0 1 1 0-93.2 46.6 46.6 0 0 1 0 93.2zm83.4-56.2a46.6 46.6 0 1 1 93.3 0 46.6 46.6 0 0 1-93.3 0zm123.5 159a46.6 46.6 0 1 1 0-93.3 46.6 46.6 0 0 1 0 93.3zM243 563.9c-2.4-30.2 34.4-74.3 69.3-69.1L326 512a50 50 0 0 1-17.6 33.2c-17.6 14.5-38.8 10-56.5 14-3.2.8-5.5 2.5-8.9 4.6zm84.4-77.1c19.3-23.4 39-46.8 60.6-70l31.2 39.4c-26.4 15.6-52.7 28-79.2 42.3-4.5 2.7-8.4-8.1-12.6-11.7zm271.4-203.2l1.2 1.6c-2.4 7.3-6.3 14-11 20.2-39.7 53.7-98 92.6-156.8 141.2-10-13.5-23.3-27.6-31.1-40.6 70.3-51.1 129-103.5 197.7-122.4z" fill="#ebebeb" fill-rule="nonzero"/></svg>