<svg viewBox="0 0 128 128" xmlns="http://www.w3.org/2000/svg" fill-rule="evenodd" clip-rule="evenodd" stroke-linejoin="round" stroke-miterlimit="2"><path d="M53 .5C23.8.5 0 24.4 0 53.5s23.8 53 53 53c5 0 8.8-3.8 8.8-8.8 0-2.4-.9-4.5-2.3-6A8.2 8.2 0 0 1 57 86c0-5 3.8-8.8 8.8-8.8h10.6A29.5 29.5 0 0 0 106 47.6c0-25.9-23.9-47-53-47z" fill="#157efb" fill-rule="nonzero"/><path d="M53.4 0a55.8 55.8 0 0 0-38 16.6c13 .7 35.2 13.4 47.2 27.5 10.5 12.4 14 33 14 33A29.5 29.5 0 0 0 106 47.6C106 21.7 84.6.8 53.4 0z" fill="#1560fb" fill-rule="nonzero"/><circle cx="52" cy="42.1" r="8" fill="#fd0" transform="translate(-32 -31.7) scale(1.34442)"/><circle cx="74.4" cy="40.4" r="8" fill="#e61aaa" transform="translate(-32 -31.7) scale(1.34442)"/><circle cx="87.7" cy="59.8" r="8" fill="#911ae6" transform="translate(-32 -31.7) scale(1.34442)"/><circle cx="39.9" cy="61.3" r="8" fill="#7bc143" transform="translate(-32 -31.7) scale(1.34442)"/><path d="M49 128c-.6-6.7 7.6-16.4 15.3-15.3l3 3.8c-.4 3.1-1.6 5.5-3.9 7.4-3.9 3.2-8.6 2.2-12.5 3.1-.7.2-1.2.5-2 1z" fill="#f2af0d"/><path d="M67.6 111c4.3-5.3 8.7-10.4 13.5-15.5l6.9 8.7c-5.9 3.4-11.7 6.2-17.6 9.3-1 .6-1.8-1.8-2.8-2.6z" fill="#157efb"/><path d="M127.7 66l.3.3c-.5 1.6-1.4 3-2.4 4.5-8.8 11.9-21.7 20.5-34.7 31.2-2.3-3-5.2-6-7-9 15.6-11.3 28.6-22.9 43.8-27z" fill="#156cfb"/></svg>